# xmcd CD database file
#
# Track frame offsets:
#	150
#	18837
#	36364
#	54537
#	71065
#	90617
#	110058
#	126977
#	144337
#	163968
#	181405
#	199961
#	215613
#	234663
#
# Disc length: 3329 seconds
#
# Revision: 0
# Processed by: cddbd v1.5.2PL0 Copyright (c) Steve Scherf et al.
# Submitted via: NeoAudio 9.9.9
#
DISCID=d50cff0e
DTITLE=Various Artist - Look Thung Super Hits 3
DYEAR=2004
DGENRE=Country
TTITLE0=Bor on sorn - Khaew Sodsai
TTITLE1=Show ber mai show jai - Duangchan Suwanee
TTITLE2=Nung fao kao jeeb - Ekapol Montrakarn
TTITLE3=Pua yob yob - Chatchai Mongkolthong
TTITLE4=Non fung sieng fon - Tai Orathai
TTITLE5=Nuk rong kun way lah - Tongta Yajai
TTITLE6=Budsaba dancer - Arjariya Prommapruek
TTITLE7=Oak huk plor huk ai - Siriporn Ampaipong
TTITLE8=Kon tee ror koey - Jack Thanapol
TTITLE9=Chun yung mee tur - Loognok Supaporn
TTITLE10=Poo bao rien baht - Sorn Sinchai
TTITLE11=Eeng euy - Got Jakaphan
TTITLE12=Ar rom sei - Apapron Nakornsawan
TTITLE13=Nor nong nor - Sithiporn and Duda Srilumduan
EXTD=YEAR: 2004
EXTT0=
EXTT1=
EXTT2=
EXTT3=
EXTT4=
EXTT5=
EXTT6=
EXTT7=
EXTT8=
EXTT9=
EXTT10=
EXTT11=
EXTT12=
EXTT13=
PLAYORDER=
